<svg width="376" height="173" viewBox="0 0 376 173" fill="none" xmlns="http://www.w3.org/2000/svg">
<path d="M0.5 28C0.5 23.8579 3.85786 20.5 8 20.5H368C372.142 20.5 375.5 23.8579 375.5 28V50C375.5 54.1421 372.142 57.5 368 57.5H8C3.85786 57.5 0.5 54.1421 0.5 50V28Z" fill="#52503B" fill-opacity="0.02" stroke="#E5E7EB"/>
<path d="M0 141C0 137.686 2.68629 135 6 135H76C79.3137 135 82 137.686 82 141V167C82 170.314 79.3137 173 76 173H6C2.68629 173 0 170.314 0 167V141Z" fill="#353732"/>
<path d="M9.10547 7.10156C8.99609 7.10547 8.82812 7.13672 8.60156 7.19531C8.375 7.25391 8.21289 7.31445 8.11523 7.37695C7.97461 7.47461 7.87891 7.66211 7.82812 7.93945C7.78125 8.2168 7.75781 8.56836 7.75781 8.99414V15.082H7.24805L2.20898 8.2793V12.5684C2.20898 13.0488 2.23828 13.418 2.29688 13.6758C2.35938 13.9336 2.45312 14.1172 2.57812 14.2266C2.66797 14.3125 2.85352 14.3926 3.13477 14.4668C3.41602 14.541 3.60156 14.5801 3.69141 14.584V15H0.28125V14.584C0.386719 14.5762 0.564453 14.5391 0.814453 14.4727C1.06445 14.4023 1.2207 14.3398 1.2832 14.2852C1.41992 14.1758 1.51367 14.0098 1.56445 13.7871C1.61523 13.5605 1.64062 13.1758 1.64062 12.6328V8.53711C1.64062 8.35742 1.60938 8.17773 1.54688 7.99805C1.48438 7.81836 1.40039 7.67969 1.29492 7.58203C1.1543 7.45312 0.962891 7.34375 0.720703 7.25391C0.482422 7.16016 0.289062 7.10938 0.140625 7.10156V6.68555H2.51367L7.18945 13.0254V9.07031C7.18945 8.58594 7.1582 8.21484 7.0957 7.95703C7.0332 7.69531 6.94336 7.52148 6.82617 7.43555C6.7168 7.36133 6.53711 7.28906 6.28711 7.21875C6.04102 7.14844 5.85352 7.10938 5.72461 7.10156V6.68555H9.10547V7.10156ZM15.1055 14.8945C14.9219 14.9609 14.7598 15.0137 14.6191 15.0527C14.4824 15.0957 14.3262 15.1172 14.1504 15.1172C13.8457 15.1172 13.6016 15.0469 13.418 14.9062C13.2383 14.7617 13.123 14.5527 13.0723 14.2793H13.0371C12.7832 14.5605 12.5098 14.7754 12.2168 14.9238C11.9277 15.0723 11.5781 15.1465 11.168 15.1465C10.7344 15.1465 10.377 15.0137 10.0957 14.748C9.81836 14.4824 9.67969 14.1348 9.67969 13.7051C9.67969 13.4824 9.71094 13.2832 9.77344 13.1074C9.83594 12.9316 9.92969 12.7734 10.0547 12.6328C10.1523 12.5156 10.2812 12.4121 10.4414 12.3223C10.6016 12.2285 10.752 12.1543 10.8926 12.0996C11.0684 12.0332 11.4238 11.9102 11.959 11.7305C12.498 11.5508 12.8613 11.4102 13.0488 11.3086V10.7285C13.0488 10.6777 13.0371 10.5801 13.0137 10.4355C12.9941 10.291 12.9492 10.1543 12.8789 10.0254C12.8008 9.88086 12.6895 9.75586 12.5449 9.65039C12.4043 9.54102 12.2031 9.48633 11.9414 9.48633C11.7617 9.48633 11.5938 9.51758 11.4375 9.58008C11.2852 9.63867 11.1777 9.70117 11.1152 9.76758C11.1152 9.8457 11.1328 9.96094 11.168 10.1133C11.207 10.2656 11.2266 10.4062 11.2266 10.5352C11.2266 10.6719 11.1641 10.7969 11.0391 10.9102C10.918 11.0234 10.748 11.0801 10.5293 11.0801C10.334 11.0801 10.1895 11.0117 10.0957 10.875C10.0059 10.7344 9.96094 10.5781 9.96094 10.4062C9.96094 10.2266 10.0234 10.0547 10.1484 9.89062C10.2773 9.72656 10.4434 9.58008 10.6465 9.45117C10.8223 9.3418 11.0352 9.25 11.2852 9.17578C11.5352 9.09766 11.7793 9.05859 12.0176 9.05859C12.3457 9.05859 12.6309 9.08203 12.873 9.12891C13.1191 9.17188 13.3418 9.26758 13.541 9.41602C13.7402 9.56055 13.8906 9.75781 13.9922 10.0078C14.0977 10.2539 14.1504 10.5723 14.1504 10.9629C14.1504 11.5215 14.1445 12.0176 14.1328 12.4512C14.1211 12.8809 14.1152 13.3516 14.1152 13.8633C14.1152 14.0156 14.1406 14.1367 14.1914 14.2266C14.2461 14.3164 14.3281 14.3926 14.4375 14.4551C14.4961 14.4902 14.5879 14.5098 14.7129 14.5137C14.8418 14.5176 14.9727 14.5195 15.1055 14.5195V14.8945ZM13.0605 11.8008C12.7285 11.8984 12.4375 11.9941 12.1875 12.0879C11.9375 12.1816 11.7051 12.2988 11.4902 12.4395C11.2949 12.5723 11.1406 12.7305 11.0273 12.9141C10.9141 13.0938 10.8574 13.3086 10.8574 13.5586C10.8574 13.8828 10.9414 14.1211 11.1094 14.2734C11.2812 14.4258 11.498 14.502 11.7598 14.502C12.0371 14.502 12.2812 14.4355 12.4922 14.3027C12.7031 14.166 12.8809 14.0059 13.0254 13.8223L13.0605 11.8008ZM25.5762 15H22.7578V14.6133C22.8477 14.6055 22.9375 14.5977 23.0273 14.5898C23.1211 14.582 23.2031 14.5664 23.2734 14.543C23.3828 14.5078 23.4629 14.4473 23.5137 14.3613C23.5684 14.2715 23.5957 14.1562 23.5957 14.0156V11.0332C23.5957 10.627 23.502 10.3145 23.3145 10.0957C23.1309 9.87305 22.9004 9.76172 22.623 9.76172C22.4316 9.76172 22.252 9.79102 22.084 9.84961C21.916 9.9082 21.7617 9.99023 21.6211 10.0957C21.5078 10.1816 21.4121 10.2754 21.334 10.377C21.2598 10.4746 21.2031 10.5566 21.1641 10.623V13.957C21.1641 14.0938 21.1875 14.207 21.2344 14.2969C21.2812 14.3828 21.3613 14.4492 21.4746 14.4961C21.5645 14.5312 21.6445 14.5586 21.7148 14.5781C21.7891 14.5938 21.8848 14.6055 22.002 14.6133V15H19.2422V14.6133C19.332 14.6055 19.418 14.5977 19.5 14.5898C19.5859 14.582 19.6641 14.5664 19.7344 14.543C19.8438 14.5078 19.9238 14.4473 19.9746 14.3613C20.0293 14.2715 20.0566 14.1562 20.0566 14.0156V11.0332C20.0566 10.627 19.9629 10.3145 19.7754 10.0957C19.5918 9.87305 19.3613 9.76172 19.084 9.76172C18.8926 9.76172 18.7129 9.79297 18.5449 9.85547C18.377 9.91406 18.2227 9.99609 18.082 10.1016C17.9688 10.1875 17.873 10.2852 17.7949 10.3945C17.7168 10.5 17.6582 10.5801 17.6191 10.6348V13.9453C17.6191 14.0781 17.6465 14.1895 17.7012 14.2793C17.7559 14.3691 17.8379 14.4375 17.9473 14.4844C18.0293 14.5234 18.1133 14.5527 18.1992 14.5723C18.2852 14.5918 18.3809 14.6055 18.4863 14.6133V15H15.6797V14.6133C15.7695 14.6055 15.8613 14.5977 15.9551 14.5898C16.0527 14.582 16.1367 14.5664 16.207 14.543C16.3164 14.5078 16.3965 14.4473 16.4473 14.3613C16.502 14.2715 16.5293 14.1562 16.5293 14.0156V10.4238C16.5293 10.2988 16.5 10.1875 16.4414 10.0898C16.3867 9.98828 16.3086 9.90234 16.207 9.83203C16.1328 9.78516 16.041 9.74805 15.9316 9.7207C15.8223 9.68945 15.709 9.66992 15.5918 9.66211V9.28125L17.5254 9.15234L17.6074 9.23438V10.0605H17.6484C17.7461 9.96289 17.8652 9.84766 18.0059 9.71484C18.1465 9.58203 18.2773 9.47461 18.3984 9.39258C18.5352 9.29883 18.7051 9.2207 18.9082 9.1582C19.1152 9.0957 19.3379 9.06445 19.5762 9.06445C19.9512 9.06445 20.2734 9.16602 20.543 9.36914C20.8125 9.56836 21.0059 9.81055 21.123 10.0957C21.2637 9.95898 21.3867 9.83984 21.4922 9.73828C21.6016 9.63281 21.7441 9.52148 21.9199 9.4043C22.0684 9.30273 22.2422 9.2207 22.4414 9.1582C22.6445 9.0957 22.8691 9.06445 23.1152 9.06445C23.6035 9.06445 23.9902 9.22461 24.2754 9.54492C24.5605 9.86523 24.7031 10.3574 24.7031 11.0215V13.957C24.7031 14.0938 24.7266 14.207 24.7734 14.2969C24.8203 14.3828 24.9004 14.4492 25.0137 14.4961C25.1035 14.5312 25.1914 14.5586 25.2773 14.5781C25.3672 14.5938 25.4668 14.6055 25.5762 14.6133V15ZM31.3828 13.6406C31.1406 14.1016 30.8164 14.4688 30.4102 14.7422C30.0039 15.0156 29.5371 15.1523 29.0098 15.1523C28.5449 15.1523 28.1367 15.0703 27.7852 14.9062C27.4375 14.7422 27.1504 14.5195 26.9238 14.2383C26.6973 13.957 26.5273 13.6289 26.4141 13.2539C26.3047 12.8789 26.25 12.4824 26.25 12.0645C26.25 11.6895 26.3086 11.3223 26.4258 10.9629C26.5469 10.5996 26.7227 10.2734 26.9531 9.98438C27.1758 9.70703 27.4512 9.48438 27.7793 9.31641C28.1113 9.14453 28.4824 9.05859 28.8926 9.05859C29.3145 9.05859 29.6758 9.125 29.9766 9.25781C30.2773 9.39062 30.5215 9.57227 30.709 9.80273C30.8887 10.0215 31.0215 10.2793 31.1074 10.5762C31.1973 10.873 31.2422 11.1953 31.2422 11.543V11.9297H27.416C27.416 12.3086 27.4512 12.6523 27.5215 12.9609C27.5957 13.2695 27.7109 13.541 27.8672 13.7754C28.0195 14.002 28.2188 14.1816 28.4648 14.3145C28.7109 14.4434 29.0039 14.5078 29.3438 14.5078C29.6914 14.5078 29.9902 14.4277 30.2402 14.2676C30.4941 14.1035 30.7383 13.8105 30.9727 13.3887L31.3828 13.6406ZM30.0879 11.4375C30.0879 11.2188 30.0684 10.9844 30.0293 10.7344C29.9941 10.4844 29.9355 10.2754 29.8535 10.1074C29.7637 9.92773 29.6406 9.78125 29.4844 9.66797C29.3281 9.55469 29.127 9.49805 28.8809 9.49805C28.4707 9.49805 28.1289 9.66992 27.8555 10.0137C27.5859 10.3535 27.4395 10.8281 27.416 11.4375H30.0879Z" fill="#353732"/>
<path d="M0.5 95C0.5 90.8579 3.85786 87.5 8 87.5H368C372.142 87.5 375.5 90.8579 375.5 95V117C375.5 121.142 372.142 124.5 368 124.5H8C3.85786 124.5 0.5 121.142 0.5 117V95Z" fill="#52503B" fill-opacity="0.02" stroke="#E5E7EB"/>
<path d="M7.56445 79.5508L7.40625 82H0.503906V81.584C0.621094 81.5762 0.777344 81.5605 0.972656 81.5371C1.16797 81.5098 1.29492 81.4824 1.35352 81.4551C1.47852 81.3965 1.56445 81.3203 1.61133 81.2266C1.66211 81.1328 1.6875 81.0137 1.6875 80.8691V74.8926C1.6875 74.7637 1.66602 74.6504 1.62305 74.5527C1.58008 74.4512 1.49023 74.3691 1.35352 74.3066C1.24805 74.2559 1.10547 74.2109 0.925781 74.1719C0.75 74.1328 0.609375 74.1094 0.503906 74.1016V73.6855H6.9375V75.6895H6.49805C6.41992 75.3926 6.25 75.0781 5.98828 74.7461C5.73047 74.4102 5.48438 74.2266 5.25 74.1953C5.12891 74.1797 4.98438 74.168 4.81641 74.1602C4.64844 74.1523 4.45703 74.1484 4.24219 74.1484H2.93555V77.4531H3.87305C4.17383 77.4531 4.39258 77.4258 4.5293 77.3711C4.66992 77.3125 4.79297 77.2168 4.89844 77.084C4.98438 76.9707 5.05664 76.8203 5.11523 76.6328C5.17773 76.4414 5.21875 76.2617 5.23828 76.0938H5.67773V79.3457H5.23828C5.22266 79.1582 5.17969 78.9609 5.10938 78.7539C5.04297 78.543 4.97266 78.3906 4.89844 78.2969C4.77734 78.1445 4.63867 78.0449 4.48242 77.998C4.33008 77.9512 4.12695 77.9277 3.87305 77.9277H2.93555V80.4238C2.93555 80.6738 2.95312 80.8711 2.98828 81.0156C3.02344 81.1602 3.0918 81.2695 3.19336 81.3438C3.29492 81.418 3.43359 81.4668 3.60938 81.4902C3.78516 81.5098 4.03516 81.5195 4.35938 81.5195C4.48828 81.5195 4.6582 81.5195 4.86914 81.5195C5.08008 81.5195 5.25781 81.5117 5.40234 81.4961C5.55078 81.4805 5.70312 81.4531 5.85938 81.4141C6.01953 81.3711 6.13281 81.3145 6.19922 81.2441C6.37891 81.0566 6.56641 80.7734 6.76172 80.3945C6.96094 80.0117 7.08789 79.7305 7.14258 79.5508H7.56445ZM18.1582 82H15.3398V81.6133C15.4297 81.6055 15.5195 81.5977 15.6094 81.5898C15.7031 81.582 15.7852 81.5664 15.8555 81.543C15.9648 81.5078 16.0449 81.4473 16.0957 81.3613C16.1504 81.2715 16.1777 81.1562 16.1777 81.0156V78.0332C16.1777 77.627 16.084 77.3145 15.8965 77.0957C15.7129 76.873 15.4824 76.7617 15.2051 76.7617C15.0137 76.7617 14.834 76.791 14.666 76.8496C14.498 76.9082 14.3438 76.9902 14.2031 77.0957C14.0898 77.1816 13.9941 77.2754 13.916 77.377C13.8418 77.4746 13.7852 77.5566 13.7461 77.623V80.957C13.7461 81.0938 13.7695 81.207 13.8164 81.2969C13.8633 81.3828 13.9434 81.4492 14.0566 81.4961C14.1465 81.5312 14.2266 81.5586 14.2969 81.5781C14.3711 81.5938 14.4668 81.6055 14.584 81.6133V82H11.8242V81.6133C11.9141 81.6055 12 81.5977 12.082 81.5898C12.168 81.582 12.2461 81.5664 12.3164 81.543C12.4258 81.5078 12.5059 81.4473 12.5566 81.3613C12.6113 81.2715 12.6387 81.1562 12.6387 81.0156V78.0332C12.6387 77.627 12.5449 77.3145 12.3574 77.0957C12.1738 76.873 11.9434 76.7617 11.666 76.7617C11.4746 76.7617 11.2949 76.793 11.127 76.8555C10.959 76.9141 10.8047 76.9961 10.6641 77.1016C10.5508 77.1875 10.4551 77.2852 10.377 77.3945C10.2988 77.5 10.2402 77.5801 10.2012 77.6348V80.9453C10.2012 81.0781 10.2285 81.1895 10.2832 81.2793C10.3379 81.3691 10.4199 81.4375 10.5293 81.4844C10.6113 81.5234 10.6953 81.5527 10.7812 81.5723C10.8672 81.5918 10.9629 81.6055 11.0684 81.6133V82H8.26172V81.6133C8.35156 81.6055 8.44336 81.5977 8.53711 81.5898C8.63477 81.582 8.71875 81.5664 8.78906 81.543C8.89844 81.5078 8.97852 81.4473 9.0293 81.3613C9.08398 81.2715 9.11133 81.1562 9.11133 81.0156V77.4238C9.11133 77.2988 9.08203 77.1875 9.02344 77.0898C8.96875 76.9883 8.89062 76.9023 8.78906 76.832C8.71484 76.7852 8.62305 76.748 8.51367 76.7207C8.4043 76.6895 8.29102 76.6699 8.17383 76.6621V76.2812L10.1074 76.1523L10.1895 76.2344V77.0605H10.2305C10.3281 76.9629 10.4473 76.8477 10.5879 76.7148C10.7285 76.582 10.8594 76.4746 10.9805 76.3926C11.1172 76.2988 11.2871 76.2207 11.4902 76.1582C11.6973 76.0957 11.9199 76.0645 12.1582 76.0645C12.5332 76.0645 12.8555 76.166 13.125 76.3691C13.3945 76.5684 13.5879 76.8105 13.7051 77.0957C13.8457 76.959 13.9688 76.8398 14.0742 76.7383C14.1836 76.6328 14.3262 76.5215 14.502 76.4043C14.6504 76.3027 14.8242 76.2207 15.0234 76.1582C15.2266 76.0957 15.4512 76.0645 15.6973 76.0645C16.1855 76.0645 16.5723 76.2246 16.8574 76.5449C17.1426 76.8652 17.2852 77.3574 17.2852 78.0215V80.957C17.2852 81.0938 17.3086 81.207 17.3555 81.2969C17.4023 81.3828 17.4824 81.4492 17.5957 81.4961C17.6855 81.5312 17.7734 81.5586 17.8594 81.5781C17.9492 81.5938 18.0488 81.6055 18.1582 81.6133V82ZM24.3047 81.8945C24.1211 81.9609 23.959 82.0137 23.8184 82.0527C23.6816 82.0957 23.5254 82.1172 23.3496 82.1172C23.0449 82.1172 22.8008 82.0469 22.6172 81.9062C22.4375 81.7617 22.3223 81.5527 22.2715 81.2793H22.2363C21.9824 81.5605 21.709 81.7754 21.416 81.9238C21.127 82.0723 20.7773 82.1465 20.3672 82.1465C19.9336 82.1465 19.5762 82.0137 19.2949 81.748C19.0176 81.4824 18.8789 81.1348 18.8789 80.7051C18.8789 80.4824 18.9102 80.2832 18.9727 80.1074C19.0352 79.9316 19.1289 79.7734 19.2539 79.6328C19.3516 79.5156 19.4805 79.4121 19.6406 79.3223C19.8008 79.2285 19.9512 79.1543 20.0918 79.0996C20.2676 79.0332 20.623 78.9102 21.1582 78.7305C21.6973 78.5508 22.0605 78.4102 22.248 78.3086V77.7285C22.248 77.6777 22.2363 77.5801 22.2129 77.4355C22.1934 77.291 22.1484 77.1543 22.0781 77.0254C22 76.8809 21.8887 76.7559 21.7441 76.6504C21.6035 76.541 21.4023 76.4863 21.1406 76.4863C20.9609 76.4863 20.793 76.5176 20.6367 76.5801C20.4844 76.6387 20.377 76.7012 20.3145 76.7676C20.3145 76.8457 20.332 76.9609 20.3672 77.1133C20.4062 77.2656 20.4258 77.4062 20.4258 77.5352C20.4258 77.6719 20.3633 77.7969 20.2383 77.9102C20.1172 78.0234 19.9473 78.0801 19.7285 78.0801C19.5332 78.0801 19.3887 78.0117 19.2949 77.875C19.2051 77.7344 19.1602 77.5781 19.1602 77.4062C19.1602 77.2266 19.2227 77.0547 19.3477 76.8906C19.4766 76.7266 19.6426 76.5801 19.8457 76.4512C20.0215 76.3418 20.2344 76.25 20.4844 76.1758C20.7344 76.0977 20.9785 76.0586 21.2168 76.0586C21.5449 76.0586 21.8301 76.082 22.0723 76.1289C22.3184 76.1719 22.541 76.2676 22.7402 76.416C22.9395 76.5605 23.0898 76.7578 23.1914 77.0078C23.2969 77.2539 23.3496 77.5723 23.3496 77.9629C23.3496 78.5215 23.3438 79.0176 23.332 79.4512C23.3203 79.8809 23.3145 80.3516 23.3145 80.8633C23.3145 81.0156 23.3398 81.1367 23.3906 81.2266C23.4453 81.3164 23.5273 81.3926 23.6367 81.4551C23.6953 81.4902 23.7871 81.5098 23.9121 81.5137C24.041 81.5176 24.1719 81.5195 24.3047 81.5195V81.8945ZM22.2598 78.8008C21.9277 78.8984 21.6367 78.9941 21.3867 79.0879C21.1367 79.1816 20.9043 79.2988 20.6895 79.4395C20.4941 79.5723 20.3398 79.7305 20.2266 79.9141C20.1133 80.0938 20.0566 80.3086 20.0566 80.5586C20.0566 80.8828 20.1406 81.1211 20.3086 81.2734C20.4805 81.4258 20.6973 81.502 20.959 81.502C21.2363 81.502 21.4805 81.4355 21.6914 81.3027C21.9023 81.166 22.0801 81.0059 22.2246 80.8223L22.2598 78.8008ZM27.6855 82H24.8906V81.6133C24.9805 81.6055 25.0723 81.5977 25.166 81.5898C25.2637 81.582 25.3477 81.5664 25.418 81.543C25.5273 81.5078 25.6074 81.4473 25.6582 81.3613C25.7129 81.2715 25.7402 81.1562 25.7402 81.0156V77.4473C25.7402 77.3223 25.7109 77.209 25.6523 77.1074C25.5977 77.002 25.5195 76.9141 25.418 76.8438C25.3438 76.7969 25.2363 76.7578 25.0957 76.7266C24.9551 76.6914 24.8262 76.6699 24.709 76.6621V76.2812L26.748 76.1523L26.8301 76.2344V80.9453C26.8301 81.082 26.8555 81.1953 26.9062 81.2852C26.9609 81.375 27.0449 81.4414 27.1582 81.4844C27.2441 81.5195 27.3281 81.5488 27.4102 81.5723C27.4922 81.5918 27.584 81.6055 27.6855 81.6133V82ZM26.9473 73.873C26.9473 74.0957 26.873 74.291 26.7246 74.459C26.5801 74.623 26.4004 74.7051 26.1855 74.7051C25.9863 74.7051 25.8125 74.627 25.6641 74.4707C25.5195 74.3105 25.4473 74.1289 25.4473 73.9258C25.4473 73.7109 25.5195 73.5234 25.6641 73.3633C25.8125 73.2031 25.9863 73.123 26.1855 73.123C26.4082 73.123 26.5898 73.1992 26.7305 73.3516C26.875 73.5 26.9473 73.6738 26.9473 73.873ZM31.1016 82H28.2832V81.6133C28.373 81.6055 28.4688 81.5977 28.5703 81.5898C28.6719 81.5781 28.7559 81.5625 28.8223 81.543C28.9316 81.5078 29.0137 81.4473 29.0684 81.3613C29.123 81.2715 29.1504 81.1562 29.1504 81.0156V74.3242C29.1504 74.1836 29.1191 74.0527 29.0566 73.9316C28.998 73.8066 28.9199 73.709 28.8223 73.6387C28.752 73.5918 28.623 73.5488 28.4355 73.5098C28.248 73.4707 28.0977 73.4473 27.9844 73.4395V73.0645L30.1582 72.9297L30.2402 73.0176V80.9453C30.2402 81.082 30.2656 81.1953 30.3164 81.2852C30.3672 81.3711 30.4492 81.4375 30.5625 81.4844C30.6484 81.5234 30.7324 81.5527 30.8145 81.5723C30.9004 81.5918 30.9961 81.6055 31.1016 81.6133V82ZM42.627 82H39.1641V81.584C39.4688 81.5645 39.7207 81.5254 39.9199 81.4668C40.123 81.4082 40.2246 81.3359 40.2246 81.25C40.2246 81.2148 40.2207 81.1719 40.2129 81.1211C40.2051 81.0703 40.1934 81.0254 40.1777 80.9863L39.4863 79.123H36.5742C36.4648 79.3965 36.375 79.6348 36.3047 79.8379C36.2383 80.041 36.1777 80.2285 36.123 80.4004C36.0723 80.5684 36.0371 80.7051 36.0176 80.8105C35.998 80.916 35.9883 81.002 35.9883 81.0684C35.9883 81.2246 36.1113 81.3457 36.3574 81.4316C36.6035 81.5176 36.8809 81.5684 37.1895 81.584V82H34.0605V81.584C34.1621 81.5762 34.2891 81.5547 34.4414 81.5195C34.5938 81.4805 34.7188 81.4297 34.8164 81.3672C34.9727 81.2617 35.0938 81.1523 35.1797 81.0391C35.2656 80.9219 35.3496 80.7617 35.4316 80.5586C35.8496 79.5156 36.3105 78.3438 36.8145 77.043C37.3184 75.7422 37.7676 74.584 38.1621 73.5684H38.6309L41.4023 80.7402C41.4609 80.8926 41.5273 81.0156 41.6016 81.1094C41.6758 81.2031 41.7793 81.2949 41.9121 81.3848C42.002 81.4395 42.1191 81.4863 42.2637 81.5254C42.4082 81.5605 42.5293 81.5801 42.627 81.584V82ZM39.2754 78.6016L38.0156 75.3789L36.7793 78.6016H39.2754ZM49.1016 81.8945L47.0859 82.0234L46.998 81.9414V81.4023L46.9512 81.3906C46.748 81.6172 46.4961 81.8027 46.1953 81.9473C45.8984 82.0918 45.5918 82.1641 45.2754 82.1641C44.9473 82.1641 44.6289 82.0918 44.3203 81.9473C44.0156 81.7988 43.75 81.5918 43.5234 81.3262C43.293 81.0566 43.1094 80.7324 42.9727 80.3535C42.8398 79.9746 42.7734 79.5566 42.7734 79.0996C42.7734 78.6816 42.8457 78.2852 42.9902 77.9102C43.1348 77.5352 43.334 77.207 43.5879 76.9258C43.8262 76.6641 44.1172 76.4551 44.4609 76.2988C44.8086 76.1426 45.1621 76.0645 45.5215 76.0645C45.791 76.0645 46.0547 76.0996 46.3125 76.1699C46.5742 76.2363 46.7988 76.3223 46.9863 76.4277V74.418C46.9863 74.2539 46.959 74.1055 46.9043 73.9727C46.8496 73.8359 46.7734 73.7324 46.6758 73.6621C46.5664 73.5879 46.418 73.5352 46.2305 73.5039C46.0469 73.4688 45.8477 73.4434 45.6328 73.4277V73.0645L47.9941 72.9297L48.082 73.0176V80.8105C48.082 80.9473 48.1074 81.0645 48.1582 81.1621C48.2129 81.2559 48.291 81.3359 48.3926 81.4023C48.4668 81.4492 48.5742 81.4785 48.7148 81.4902C48.8555 81.502 48.9844 81.5098 49.1016 81.5137V81.8945ZM46.9863 80.8809V77.5C46.9551 77.3984 46.9043 77.2891 46.834 77.1719C46.7637 77.0547 46.6758 76.9473 46.5703 76.8496C46.457 76.752 46.3242 76.6719 46.1719 76.6094C46.0195 76.543 45.8418 76.5098 45.6387 76.5098C45.4043 76.5098 45.1875 76.5703 44.9883 76.6914C44.793 76.8125 44.6191 76.9863 44.4668 77.2129C44.3223 77.4316 44.207 77.7109 44.1211 78.0508C44.0391 78.3867 43.998 78.7598 43.998 79.1699C43.998 79.498 44.0293 79.7969 44.0918 80.0664C44.1543 80.332 44.2598 80.5801 44.4082 80.8105C44.5449 81.0293 44.7188 81.2051 44.9297 81.3379C45.1445 81.4707 45.3984 81.5371 45.6914 81.5371C46.0039 81.5371 46.2617 81.4688 46.4648 81.332C46.6719 81.1953 46.8457 81.0449 46.9863 80.8809ZM55.9922 81.8945L53.9766 82.0234L53.8887 81.9414V81.4023L53.8418 81.3906C53.6387 81.6172 53.3867 81.8027 53.0859 81.9473C52.7891 82.0918 52.4824 82.1641 52.166 82.1641C51.8379 82.1641 51.5195 82.0918 51.2109 81.9473C50.9062 81.7988 50.6406 81.5918 50.4141 81.3262C50.1836 81.0566 50 80.7324 49.8633 80.3535C49.7305 79.9746 49.6641 79.5566 49.6641 79.0996C49.6641 78.6816 49.7363 78.2852 49.8809 77.9102C50.0254 77.5352 50.2246 77.207 50.4785 76.9258C50.7168 76.6641 51.0078 76.4551 51.3516 76.2988C51.6992 76.1426 52.0527 76.0645 52.4121 76.0645C52.6816 76.0645 52.9453 76.0996 53.2031 76.1699C53.4648 76.2363 53.6895 76.3223 53.877 76.4277V74.418C53.877 74.2539 53.8496 74.1055 53.7949 73.9727C53.7402 73.8359 53.6641 73.7324 53.5664 73.6621C53.457 73.5879 53.3086 73.5352 53.1211 73.5039C52.9375 73.4688 52.7383 73.4434 52.5234 73.4277V73.0645L54.8848 72.9297L54.9727 73.0176V80.8105C54.9727 80.9473 54.998 81.0645 55.0488 81.1621C55.1035 81.2559 55.1816 81.3359 55.2832 81.4023C55.3574 81.4492 55.4648 81.4785 55.6055 81.4902C55.7461 81.502 55.875 81.5098 55.9922 81.5137V81.8945ZM53.877 80.8809V77.5C53.8457 77.3984 53.7949 77.2891 53.7246 77.1719C53.6543 77.0547 53.5664 76.9473 53.4609 76.8496C53.3477 76.752 53.2148 76.6719 53.0625 76.6094C52.9102 76.543 52.7324 76.5098 52.5293 76.5098C52.2949 76.5098 52.0781 76.5703 51.8789 76.6914C51.6836 76.8125 51.5098 76.9863 51.3574 77.2129C51.2129 77.4316 51.0977 77.7109 51.0117 78.0508C50.9297 78.3867 50.8887 78.7598 50.8887 79.1699C50.8887 79.498 50.9199 79.7969 50.9824 80.0664C51.0449 80.332 51.1504 80.5801 51.2988 80.8105C51.4355 81.0293 51.6094 81.2051 51.8203 81.3379C52.0352 81.4707 52.2891 81.5371 52.582 81.5371C52.8945 81.5371 53.1523 81.4688 53.3555 81.332C53.5625 81.1953 53.7363 81.0449 53.877 80.8809ZM60.9785 76.9668C60.9785 77.166 60.9297 77.3438 60.832 77.5C60.7344 77.6523 60.584 77.7285 60.3809 77.7285C60.1621 77.7285 59.9941 77.6719 59.877 77.5586C59.7637 77.4453 59.707 77.3203 59.707 77.1836C59.707 77.0977 59.7129 77.0195 59.7246 76.9492C59.7402 76.8789 59.7539 76.8086 59.7656 76.7383C59.582 76.7383 59.3672 76.8125 59.1211 76.9609C58.875 77.1094 58.666 77.3203 58.4941 77.5938V80.957C58.4941 81.0938 58.5195 81.2051 58.5703 81.291C58.625 81.377 58.709 81.4414 58.8223 81.4844C58.9199 81.5234 59.0449 81.5527 59.1973 81.5723C59.3535 81.5918 59.4883 81.6055 59.6016 81.6133V82H56.5547V81.6133C56.6445 81.6055 56.7363 81.5977 56.8301 81.5898C56.9277 81.582 57.0117 81.5664 57.082 81.543C57.1914 81.5078 57.2715 81.4473 57.3223 81.3613C57.377 81.2715 57.4043 81.1562 57.4043 81.0156V77.4473C57.4043 77.3262 57.375 77.207 57.3164 77.0898C57.2617 76.9727 57.1836 76.8789 57.082 76.8086C57.0078 76.7617 56.9199 76.7285 56.8184 76.709C56.7168 76.6855 56.6074 76.6699 56.4902 76.6621V76.2812L58.4121 76.1523L58.4941 76.2344V77.0488H58.5234C58.7656 76.7324 59.0352 76.4922 59.332 76.3281C59.6289 76.1641 59.9004 76.082 60.1465 76.082C60.3926 76.082 60.5918 76.1621 60.7441 76.3223C60.9004 76.4824 60.9785 76.6973 60.9785 76.9668ZM66.6094 80.6406C66.3672 81.1016 66.043 81.4688 65.6367 81.7422C65.2305 82.0156 64.7637 82.1523 64.2363 82.1523C63.7715 82.1523 63.3633 82.0703 63.0117 81.9062C62.6641 81.7422 62.377 81.5195 62.1504 81.2383C61.9238 80.957 61.7539 80.6289 61.6406 80.2539C61.5312 79.8789 61.4766 79.4824 61.4766 79.0645C61.4766 78.6895 61.5352 78.3223 61.6523 77.9629C61.7734 77.5996 61.9492 77.2734 62.1797 76.9844C62.4023 76.707 62.6777 76.4844 63.0059 76.3164C63.3379 76.1445 63.709 76.0586 64.1191 76.0586C64.541 76.0586 64.9023 76.125 65.2031 76.2578C65.5039 76.3906 65.748 76.5723 65.9355 76.8027C66.1152 77.0215 66.248 77.2793 66.334 77.5762C66.4238 77.873 66.4688 78.1953 66.4688 78.543V78.9297H62.6426C62.6426 79.3086 62.6777 79.6523 62.748 79.9609C62.8223 80.2695 62.9375 80.541 63.0938 80.7754C63.2461 81.002 63.4453 81.1816 63.6914 81.3145C63.9375 81.4434 64.2305 81.5078 64.5703 81.5078C64.918 81.5078 65.2168 81.4277 65.4668 81.2676C65.7207 81.1035 65.9648 80.8105 66.1992 80.3887L66.6094 80.6406ZM65.3145 78.4375C65.3145 78.2188 65.2949 77.9844 65.2559 77.7344C65.2207 77.4844 65.1621 77.2754 65.0801 77.1074C64.9902 76.9277 64.8672 76.7812 64.7109 76.668C64.5547 76.5547 64.3535 76.498 64.1074 76.498C63.6973 76.498 63.3555 76.6699 63.082 77.0137C62.8125 77.3535 62.666 77.8281 62.6426 78.4375H65.3145ZM71.0918 79.1699C71.252 79.3105 71.375 79.4727 71.4609 79.6562C71.5469 79.8398 71.5898 80.0645 71.5898 80.3301C71.5898 80.8652 71.3887 81.3027 70.9863 81.6426C70.5879 81.9824 70.0703 82.1523 69.4336 82.1523C69.0977 82.1523 68.7871 82.0918 68.502 81.9707C68.2207 81.8496 68.0195 81.7383 67.8984 81.6367L67.7812 82.0176H67.3418L67.2832 80.0078H67.6875C67.7188 80.1602 67.7852 80.3379 67.8867 80.541C67.9883 80.7441 68.1113 80.9277 68.2559 81.0918C68.4082 81.2637 68.5898 81.4082 68.8008 81.5254C69.0156 81.6426 69.2559 81.7012 69.5215 81.7012C69.8965 81.7012 70.1855 81.6172 70.3887 81.4492C70.5918 81.2773 70.6934 81.0332 70.6934 80.7168C70.6934 80.5527 70.6602 80.4121 70.5938 80.2949C70.5312 80.1738 70.4375 80.0684 70.3125 79.9785C70.1836 79.8887 70.0254 79.8086 69.8379 79.7383C69.6504 79.6641 69.4414 79.5918 69.2109 79.5215C69.0273 79.4668 68.8223 79.3926 68.5957 79.2988C68.373 79.2012 68.1816 79.0879 68.0215 78.959C67.8496 78.8223 67.709 78.6543 67.5996 78.4551C67.4902 78.2559 67.4355 78.0215 67.4355 77.752C67.4355 77.2793 67.6113 76.8789 67.9629 76.5508C68.3145 76.2227 68.7852 76.0586 69.375 76.0586C69.6016 76.0586 69.832 76.0879 70.0664 76.1465C70.3047 76.2051 70.498 76.2754 70.6465 76.3574L70.7812 76.0527H71.2031L71.291 77.9102H70.8867C70.8047 77.4961 70.627 77.1602 70.3535 76.9023C70.084 76.6406 69.7539 76.5098 69.3633 76.5098C69.043 76.5098 68.791 76.5898 68.6074 76.75C68.4238 76.9102 68.332 77.1035 68.332 77.3301C68.332 77.5059 68.3613 77.6523 68.4199 77.7695C68.4824 77.8867 68.5742 77.9863 68.6953 78.0684C68.8125 78.1465 68.959 78.2207 69.1348 78.291C69.3145 78.3574 69.5352 78.4336 69.7969 78.5195C70.0547 78.6016 70.2969 78.6973 70.5234 78.8066C70.7539 78.916 70.9434 79.0371 71.0918 79.1699ZM76.2832 79.1699C76.4434 79.3105 76.5664 79.4727 76.6523 79.6562C76.7383 79.8398 76.7812 80.0645 76.7812 80.3301C76.7812 80.8652 76.5801 81.3027 76.1777 81.6426C75.7793 81.9824 75.2617 82.1523 74.625 82.1523C74.2891 82.1523 73.9785 82.0918 73.6934 81.9707C73.4121 81.8496 73.2109 81.7383 73.0898 81.6367L72.9727 82.0176H72.5332L72.4746 80.0078H72.8789C72.9102 80.1602 72.9766 80.3379 73.0781 80.541C73.1797 80.7441 73.3027 80.9277 73.4473 81.0918C73.5996 81.2637 73.7812 81.4082 73.9922 81.5254C74.207 81.6426 74.4473 81.7012 74.7129 81.7012C75.0879 81.7012 75.377 81.6172 75.5801 81.4492C75.7832 81.2773 75.8848 81.0332 75.8848 80.7168C75.8848 80.5527 75.8516 80.4121 75.7852 80.2949C75.7227 80.1738 75.6289 80.0684 75.5039 79.9785C75.375 79.8887 75.2168 79.8086 75.0293 79.7383C74.8418 79.6641 74.6328 79.5918 74.4023 79.5215C74.2188 79.4668 74.0137 79.3926 73.7871 79.2988C73.5645 79.2012 73.373 79.0879 73.2129 78.959C73.041 78.8223 72.9004 78.6543 72.791 78.4551C72.6816 78.2559 72.627 78.0215 72.627 77.752C72.627 77.2793 72.8027 76.8789 73.1543 76.5508C73.5059 76.2227 73.9766 76.0586 74.5664 76.0586C74.793 76.0586 75.0234 76.0879 75.2578 76.1465C75.4961 76.2051 75.6895 76.2754 75.8379 76.3574L75.9727 76.0527H76.3945L76.4824 77.9102H76.0781C75.9961 77.4961 75.8184 77.1602 75.5449 76.9023C75.2754 76.6406 74.9453 76.5098 74.5547 76.5098C74.2344 76.5098 73.9824 76.5898 73.7988 76.75C73.6152 76.9102 73.5234 77.1035 73.5234 77.3301C73.5234 77.5059 73.5527 77.6523 73.6113 77.7695C73.6738 77.8867 73.7656 77.9863 73.8867 78.0684C74.0039 78.1465 74.1504 78.2207 74.3262 78.291C74.5059 78.3574 74.7266 78.4336 74.9883 78.5195C75.2461 78.6016 75.4883 78.6973 75.7148 78.8066C75.9453 78.916 76.1348 79.0371 76.2832 79.1699Z" fill="#353732"/>
</svg>
