<svg width="421" height="64" viewBox="0 0 421 64" fill="none" xmlns="http://www.w3.org/2000/svg">
<path d="M300 0H417C419.209 0 421 1.79086 421 4V38C421 40.2091 419.209 42 417 42H300V0Z" fill="#1D6FF3"/>
<path d="M300.5 0.5H417C418.933 0.5 420.5 2.067 420.5 4V38C420.5 39.933 418.933 41.5 417 41.5H300.5V0.5Z" stroke="black" stroke-opacity="0.05"/>
<path d="M1 4C1 1.79086 2.79086 0 5 0H300V42H4.99999C2.79085 42 1 40.2091 1 38V4Z" fill="white"/>
<rect width="1" height="42" fill="#979797"/>
<path d="M327.968 15.57C326.168 15.57 325.268 16.248 325.268 17.604C325.268 18.36 325.472 18.882 325.88 19.17C326.3 19.446 327.14 19.728 328.4 20.016C329.672 20.292 330.572 20.658 331.1 21.114C331.628 21.558 331.892 22.296 331.892 23.328C331.892 25.884 330.566 27.162 327.914 27.162C327.038 27.162 325.94 27.06 324.62 26.856L323.972 26.766L324.116 25.614C325.748 25.83 326.99 25.938 327.842 25.938C329.618 25.938 330.506 25.104 330.506 23.436C330.506 22.764 330.308 22.284 329.912 21.996C329.528 21.696 328.802 21.444 327.734 21.24C326.33 20.94 325.334 20.556 324.746 20.088C324.158 19.608 323.864 18.81 323.864 17.694C323.864 15.462 325.202 14.346 327.878 14.346C328.754 14.346 329.804 14.436 331.028 14.616L331.64 14.706L331.514 15.876C329.846 15.672 328.664 15.57 327.968 15.57ZM339.918 18H341.268V27H339.918V26.37C339.018 26.91 338.13 27.18 337.254 27.18C336.03 27.18 335.214 26.862 334.806 26.226C334.41 25.59 334.212 24.414 334.212 22.698V18H335.562V22.68C335.562 23.988 335.676 24.864 335.904 25.308C336.132 25.752 336.648 25.974 337.452 25.974C337.848 25.974 338.25 25.92 338.658 25.812C339.066 25.692 339.378 25.578 339.594 25.47L339.918 25.308V18ZM348.092 17.82C349.304 17.82 350.15 18.168 350.63 18.864C351.122 19.548 351.368 20.754 351.368 22.482C351.368 24.21 351.062 25.428 350.45 26.136C349.85 26.832 348.74 27.18 347.12 27.18C346.616 27.18 345.782 27.132 344.618 27.036L344.114 26.982V14.076H345.446V18.45C346.358 18.03 347.24 17.82 348.092 17.82ZM347.102 25.974C348.278 25.974 349.052 25.71 349.424 25.182C349.808 24.642 350 23.736 350 22.464C350 21.192 349.85 20.304 349.55 19.8C349.25 19.284 348.716 19.026 347.948 19.026C347.252 19.026 346.538 19.158 345.806 19.422L345.446 19.548V25.884C346.226 25.944 346.778 25.974 347.102 25.974ZM356.665 19.026C355.357 19.026 354.703 19.482 354.703 20.394C354.703 20.814 354.853 21.114 355.153 21.294C355.453 21.462 356.137 21.642 357.205 21.834C358.273 22.014 359.029 22.272 359.473 22.608C359.917 22.944 360.139 23.574 360.139 24.498C360.139 25.422 359.839 26.1 359.239 26.532C358.651 26.964 357.787 27.18 356.647 27.18C355.903 27.18 355.027 27.096 354.019 26.928L353.479 26.838L353.551 25.668C354.919 25.872 355.951 25.974 356.647 25.974C357.343 25.974 357.871 25.866 358.231 25.65C358.603 25.422 358.789 25.05 358.789 24.534C358.789 24.006 358.633 23.652 358.321 23.472C358.009 23.28 357.325 23.1 356.269 22.932C355.213 22.764 354.463 22.518 354.019 22.194C353.575 21.87 353.353 21.27 353.353 20.394C353.353 19.518 353.659 18.87 354.271 18.45C354.895 18.03 355.669 17.82 356.593 17.82C357.325 17.82 358.243 17.904 359.347 18.072L359.851 18.162L359.815 19.314C358.483 19.122 357.433 19.026 356.665 19.026ZM365.822 17.82C366.218 17.82 366.89 17.892 367.838 18.036L368.27 18.09L368.216 19.188C367.256 19.08 366.548 19.026 366.092 19.026C365.072 19.026 364.376 19.272 364.004 19.764C363.644 20.244 363.464 21.144 363.464 22.464C363.464 23.772 363.632 24.684 363.968 25.2C364.316 25.716 365.03 25.974 366.11 25.974L368.234 25.812L368.288 26.928C367.172 27.096 366.338 27.18 365.786 27.18C364.382 27.18 363.41 26.82 362.87 26.1C362.342 25.38 362.078 24.168 362.078 22.464C362.078 20.748 362.366 19.548 362.942 18.864C363.518 18.168 364.478 17.82 365.822 17.82ZM370.546 27V18H371.878V19.224C372.922 18.504 374.02 18.03 375.172 17.802V19.17C374.668 19.266 374.14 19.416 373.588 19.62C373.048 19.824 372.634 20.004 372.346 20.16L371.896 20.394V27H370.546ZM377.019 27V18H378.369V27H377.019ZM377.019 15.966V14.4H378.369V15.966H377.019ZM385.184 17.82C386.396 17.82 387.242 18.168 387.722 18.864C388.214 19.548 388.46 20.754 388.46 22.482C388.46 24.21 388.154 25.428 387.542 26.136C386.942 26.832 385.832 27.18 384.212 27.18C383.708 27.18 382.874 27.132 381.71 27.036L381.206 26.982V14.076H382.538V18.45C383.45 18.03 384.332 17.82 385.184 17.82ZM384.194 25.974C385.37 25.974 386.144 25.71 386.516 25.182C386.9 24.642 387.092 23.736 387.092 22.464C387.092 21.192 386.942 20.304 386.642 19.8C386.342 19.284 385.808 19.026 385.04 19.026C384.344 19.026 383.63 19.158 382.898 19.422L382.538 19.548V25.884C383.318 25.944 383.87 25.974 384.194 25.974ZM397.051 25.884L397.573 25.83L397.609 26.892C396.241 27.084 395.071 27.18 394.099 27.18C392.803 27.18 391.885 26.808 391.345 26.064C390.805 25.308 390.535 24.138 390.535 22.554C390.535 19.398 391.789 17.82 394.297 17.82C395.509 17.82 396.415 18.162 397.015 18.846C397.615 19.518 397.915 20.58 397.915 22.032L397.843 23.058H391.903C391.903 24.054 392.083 24.792 392.443 25.272C392.803 25.752 393.427 25.992 394.315 25.992C395.215 25.992 396.127 25.956 397.051 25.884ZM396.565 21.978C396.565 20.874 396.385 20.094 396.025 19.638C395.677 19.182 395.101 18.954 394.297 18.954C393.505 18.954 392.905 19.194 392.497 19.674C392.101 20.154 391.897 20.922 391.885 21.978H396.565Z" fill="white"/>
<rect x="1" y="41" width="299" height="1" fill="#979797"/>
<rect width="300" height="1" fill="#979797"/>
<path d="M9.53 28V15.544H17.108V16.768H10.916V21.07H16.028V22.276H10.916V26.776H17.108V28H9.53ZM20.8452 28H19.4952V19H20.8272V19.63C21.7992 19.09 22.7292 18.82 23.6172 18.82C24.8172 18.82 25.6212 19.144 26.0292 19.792C26.4492 20.44 26.6592 21.592 26.6592 23.248V28H25.3272V23.284C25.3272 22.036 25.2012 21.184 24.9492 20.728C24.7092 20.26 24.1872 20.026 23.3832 20.026C22.9992 20.026 22.5912 20.086 22.1592 20.206C21.7392 20.314 21.4152 20.422 21.1872 20.53L20.8452 20.692V28ZM34.0225 20.17H31.1605V24.472C31.1605 25.504 31.2325 26.182 31.3765 26.506C31.5325 26.83 31.8925 26.992 32.4565 26.992L34.0585 26.884L34.1485 28C33.3445 28.132 32.7325 28.198 32.3125 28.198C31.3765 28.198 30.7285 27.97 30.3685 27.514C30.0085 27.058 29.8285 26.188 29.8285 24.904V20.17H28.5505V19H29.8285V16.246H31.1605V19H34.0225V20.17ZM42.041 26.884L42.563 26.83L42.599 27.892C41.231 28.084 40.061 28.18 39.089 28.18C37.793 28.18 36.875 27.808 36.335 27.064C35.795 26.308 35.525 25.138 35.525 23.554C35.525 20.398 36.779 18.82 39.287 18.82C40.499 18.82 41.405 19.162 42.005 19.846C42.605 20.518 42.905 21.58 42.905 23.032L42.833 24.058H36.893C36.893 25.054 37.073 25.792 37.433 26.272C37.793 26.752 38.417 26.992 39.305 26.992C40.205 26.992 41.117 26.956 42.041 26.884ZM41.555 22.978C41.555 21.874 41.375 21.094 41.015 20.638C40.667 20.182 40.091 19.954 39.287 19.954C38.495 19.954 37.895 20.194 37.487 20.674C37.091 21.154 36.887 21.922 36.875 22.978H41.555ZM45.2589 28V19H46.5909V20.224C47.6349 19.504 48.7329 19.03 49.8849 18.802V20.17C49.3809 20.266 48.8529 20.416 48.3009 20.62C47.7609 20.824 47.3469 21.004 47.0589 21.16L46.6089 21.394V28H45.2589ZM55.0906 19H56.4406L58.6906 26.83H59.2846L61.5526 19H62.9026L59.1586 31.996H57.8086L58.9786 28H57.6466L55.0906 19ZM64.3336 23.482C64.3336 21.838 64.6276 20.65 65.2156 19.918C65.8036 19.186 66.7936 18.82 68.1856 18.82C69.5896 18.82 70.5796 19.186 71.1556 19.918C71.7436 20.65 72.0376 21.838 72.0376 23.482C72.0376 25.126 71.7616 26.32 71.2096 27.064C70.6576 27.808 69.6496 28.18 68.1856 28.18C66.7216 28.18 65.7136 27.808 65.1616 27.064C64.6096 26.32 64.3336 25.126 64.3336 23.482ZM65.7196 23.464C65.7196 24.772 65.8756 25.69 66.1876 26.218C66.5116 26.746 67.1776 27.01 68.1856 27.01C69.2056 27.01 69.8716 26.752 70.1836 26.236C70.4956 25.708 70.6516 24.784 70.6516 23.464C70.6516 22.144 70.4776 21.238 70.1296 20.746C69.7816 20.242 69.1336 19.99 68.1856 19.99C67.2496 19.99 66.6016 20.242 66.2416 20.746C65.8936 21.238 65.7196 22.144 65.7196 23.464ZM80.1054 19H81.4554V28H80.1054V27.37C79.2054 27.91 78.3174 28.18 77.4414 28.18C76.2174 28.18 75.4014 27.862 74.9934 27.226C74.5974 26.59 74.3994 25.414 74.3994 23.698V19H75.7494V23.68C75.7494 24.988 75.8634 25.864 76.0914 26.308C76.3194 26.752 76.8354 26.974 77.6394 26.974C78.0354 26.974 78.4374 26.92 78.8454 26.812C79.2534 26.692 79.5654 26.578 79.7814 26.47L80.1054 26.308V19ZM84.3019 28V19H85.6339V20.224C86.6779 19.504 87.7759 19.03 88.9279 18.802V20.17C88.4239 20.266 87.8959 20.416 87.3439 20.62C86.8039 20.824 86.3899 21.004 86.1019 21.16L85.6519 21.394V28H84.3019ZM101.1 26.884L101.622 26.83L101.658 27.892C100.29 28.084 99.1196 28.18 98.1476 28.18C96.8516 28.18 95.9336 27.808 95.3936 27.064C94.8536 26.308 94.5836 25.138 94.5836 23.554C94.5836 20.398 95.8376 18.82 98.3456 18.82C99.5576 18.82 100.464 19.162 101.064 19.846C101.664 20.518 101.964 21.58 101.964 23.032L101.892 24.058H95.9516C95.9516 25.054 96.1316 25.792 96.4916 26.272C96.8516 26.752 97.4756 26.992 98.3636 26.992C99.2636 26.992 100.176 26.956 101.1 26.884ZM100.614 22.978C100.614 21.874 100.434 21.094 100.074 20.638C99.7256 20.182 99.1496 19.954 98.3456 19.954C97.5536 19.954 96.9536 20.194 96.5456 20.674C96.1496 21.154 95.9456 21.922 95.9336 22.978H100.614ZM105.667 28H104.317V19H105.649V19.63C106.549 19.09 107.425 18.82 108.277 18.82C109.393 18.82 110.173 19.126 110.617 19.738C111.013 19.498 111.523 19.288 112.147 19.108C112.783 18.916 113.341 18.82 113.821 18.82C115.021 18.82 115.825 19.144 116.233 19.792C116.653 20.428 116.863 21.58 116.863 23.248V28H115.513V23.284C115.513 22.036 115.393 21.184 115.153 20.728C114.913 20.26 114.403 20.026 113.623 20.026C113.227 20.026 112.819 20.086 112.399 20.206C111.979 20.314 111.655 20.422 111.427 20.53L111.085 20.692C111.241 21.088 111.319 21.964 111.319 23.32V28H109.969V23.356C109.969 22.06 109.849 21.184 109.609 20.728C109.381 20.26 108.871 20.026 108.079 20.026C107.695 20.026 107.299 20.086 106.891 20.206C106.495 20.314 106.189 20.422 105.973 20.53L105.667 20.692V28ZM125.968 21.718V26.326C126.004 26.77 126.352 27.034 127.012 27.118L126.958 28.18C126.01 28.18 125.296 27.94 124.816 27.46C123.736 27.94 122.656 28.18 121.576 28.18C120.748 28.18 120.118 27.946 119.686 27.478C119.254 27.01 119.038 26.338 119.038 25.462C119.038 24.586 119.26 23.944 119.704 23.536C120.148 23.116 120.844 22.858 121.792 22.762L124.618 22.492V21.718C124.618 21.106 124.486 20.668 124.222 20.404C123.958 20.14 123.598 20.008 123.142 20.008C122.182 20.008 121.186 20.068 120.154 20.188L119.596 20.242L119.542 19.216C120.862 18.952 122.032 18.82 123.052 18.82C124.072 18.82 124.81 19.054 125.266 19.522C125.734 19.99 125.968 20.722 125.968 21.718ZM120.424 25.39C120.424 26.494 120.88 27.046 121.792 27.046C122.608 27.046 123.412 26.908 124.204 26.632L124.618 26.488V23.518L121.954 23.77C121.414 23.818 121.024 23.974 120.784 24.238C120.544 24.502 120.424 24.886 120.424 25.39ZM128.882 28V19H130.232V28H128.882ZM128.882 16.966V15.4H130.232V16.966H128.882ZM133.177 28V15.076H134.527V28H133.177Z" fill="#979797"/>
</svg>
