<svg width="110" height="23" viewBox="0 0 110 23" fill="none" xmlns="http://www.w3.org/2000/svg">
<path d="M11.3052 6.12695C11.1782 6.13184 11.0244 6.16113 10.8438 6.21484C10.6631 6.26367 10.5142 6.32471 10.397 6.39795C10.231 6.50049 10.0967 6.63232 9.99414 6.79346C9.89648 6.95459 9.79883 7.14502 9.70117 7.36475C9.37402 8.14111 8.8833 9.35205 8.229 10.9976C7.57471 12.6382 6.90088 14.3496 6.20752 16.1318H5.59961C4.89648 14.2422 4.21777 12.4209 3.56348 10.668C2.90918 8.91504 2.46484 7.73096 2.23047 7.11572C2.17188 6.96436 2.09375 6.83252 1.99609 6.72021C1.89844 6.60303 1.76904 6.49316 1.60791 6.39062C1.47607 6.30762 1.32959 6.24658 1.16846 6.20752C1.00732 6.16357 0.858398 6.13672 0.72168 6.12695V5.60693H5.021V6.12695C4.65479 6.14648 4.34473 6.18311 4.09082 6.23682C3.8418 6.29053 3.71729 6.38574 3.71729 6.52246C3.71729 6.57617 3.72705 6.63965 3.74658 6.71289C3.76611 6.78613 3.7832 6.84473 3.79785 6.88867C3.97852 7.36719 4.27148 8.14844 4.67676 9.23242C5.08203 10.3115 5.6582 11.8496 6.40527 13.8467C6.77637 12.9434 7.20361 11.8765 7.68701 10.646C8.17041 9.41553 8.49512 8.5708 8.66113 8.11182C8.82227 7.66748 8.91504 7.35986 8.93945 7.18896C8.96875 7.01807 8.9834 6.87891 8.9834 6.77148C8.9834 6.65918 8.93213 6.56641 8.82959 6.49316C8.73193 6.41504 8.6001 6.34912 8.43408 6.29541C8.27295 6.24658 8.10938 6.20996 7.94336 6.18555C7.77734 6.16113 7.60889 6.1416 7.43799 6.12695V5.60693H11.3052V6.12695ZM15.0405 16H11.5469V15.5166C11.6592 15.5068 11.7739 15.4971 11.8911 15.4873C12.0132 15.4775 12.1182 15.458 12.2061 15.4287C12.3428 15.3848 12.4429 15.3091 12.5063 15.2017C12.5747 15.0894 12.6089 14.9453 12.6089 14.7695V10.3091C12.6089 10.1528 12.5723 10.0112 12.499 9.88428C12.4307 9.75244 12.333 9.64258 12.2061 9.55469C12.1133 9.49609 11.979 9.44727 11.8032 9.4082C11.6274 9.36426 11.4663 9.3374 11.3198 9.32764V8.85156L13.8687 8.69043L13.9712 8.79297V14.6816C13.9712 14.8525 14.0029 14.9941 14.0664 15.1064C14.1348 15.2188 14.2397 15.3018 14.3813 15.3555C14.4888 15.3994 14.5938 15.436 14.6963 15.4653C14.7988 15.4897 14.9136 15.5068 15.0405 15.5166V16ZM14.1177 5.84131C14.1177 6.11963 14.0249 6.36377 13.8394 6.57373C13.6587 6.77881 13.4341 6.88135 13.1655 6.88135C12.9165 6.88135 12.6992 6.78369 12.5137 6.58838C12.333 6.38818 12.2427 6.16113 12.2427 5.90723C12.2427 5.63867 12.333 5.4043 12.5137 5.2041C12.6992 5.00391 12.9165 4.90381 13.1655 4.90381C13.4438 4.90381 13.6709 4.99902 13.8467 5.18945C14.0273 5.375 14.1177 5.59229 14.1177 5.84131ZM22.3428 14.3008C22.04 14.877 21.6348 15.3359 21.127 15.6777C20.6191 16.0195 20.0356 16.1904 19.3765 16.1904C18.7954 16.1904 18.2852 16.0879 17.8457 15.8828C17.4111 15.6777 17.0522 15.3994 16.769 15.0479C16.4858 14.6963 16.2734 14.2861 16.1318 13.8174C15.9951 13.3486 15.9268 12.853 15.9268 12.3306C15.9268 11.8618 16 11.4028 16.1465 10.9536C16.2979 10.4995 16.5176 10.0918 16.8057 9.73047C17.084 9.38379 17.4282 9.10547 17.8384 8.89551C18.2534 8.68066 18.7173 8.57324 19.23 8.57324C19.7573 8.57324 20.209 8.65625 20.585 8.82227C20.9609 8.98828 21.2661 9.21533 21.5005 9.50342C21.7251 9.77686 21.8911 10.0991 21.9985 10.4702C22.1108 10.8413 22.167 11.2441 22.167 11.6787V12.1621H17.3843C17.3843 12.6357 17.4282 13.0654 17.5161 13.4512C17.6089 13.8369 17.7529 14.1763 17.9482 14.4692C18.1387 14.7524 18.3877 14.9771 18.6953 15.1431C19.0029 15.3042 19.3691 15.3848 19.7939 15.3848C20.2285 15.3848 20.6021 15.2847 20.9146 15.0845C21.2319 14.8794 21.5371 14.5132 21.8301 13.9858L22.3428 14.3008ZM20.7241 11.5469C20.7241 11.2734 20.6997 10.9805 20.6509 10.668C20.6069 10.3555 20.5337 10.0942 20.4312 9.88428C20.3188 9.65967 20.165 9.47656 19.9697 9.33496C19.7744 9.19336 19.5229 9.12256 19.2153 9.12256C18.7026 9.12256 18.2754 9.3374 17.9336 9.76709C17.5967 10.1919 17.4136 10.7852 17.3843 11.5469H20.7241ZM33.937 9.24707C33.7319 9.2666 33.5098 9.35205 33.2705 9.50342C33.0361 9.65479 32.8652 9.88184 32.7578 10.1846C32.5137 10.9023 32.2817 11.5835 32.062 12.228C31.8472 12.8677 31.6055 13.5879 31.3369 14.3887C31.249 14.6426 31.1587 14.916 31.0659 15.209C30.978 15.502 30.8975 15.7827 30.8242 16.0513H30.1943L28.2534 10.7339L26.2979 16.0513H25.6973C25.3311 14.9673 24.9722 13.8931 24.6206 12.8286C24.2739 11.7593 23.9663 10.8291 23.6978 10.0381C23.6196 9.80859 23.4707 9.62793 23.251 9.49609C23.0312 9.36426 22.8188 9.28613 22.6138 9.26172V8.77832H25.8364V9.29102C25.6753 9.2959 25.4995 9.32275 25.3091 9.37158C25.1235 9.42041 25.0308 9.50098 25.0308 9.61328C25.0308 9.63281 25.0381 9.67432 25.0527 9.73779C25.0723 9.80127 25.0942 9.86963 25.1187 9.94287C25.2749 10.4556 25.4507 11.0293 25.646 11.6641C25.8462 12.2939 26.1025 13.1143 26.415 14.125L28.2607 8.9248H28.9639L30.8462 14.0518C31.0562 13.3975 31.2637 12.7651 31.4688 12.1548C31.6787 11.5396 31.8618 10.9634 32.0181 10.4263C32.0522 10.2993 32.084 10.1846 32.1133 10.082C32.1475 9.97461 32.1646 9.86963 32.1646 9.76709C32.1646 9.6792 32.1255 9.60107 32.0474 9.53271C31.9692 9.46436 31.874 9.4082 31.7617 9.36426C31.6641 9.3252 31.5566 9.2959 31.4395 9.27637C31.3271 9.25684 31.2441 9.24707 31.1904 9.24707V8.77832H33.937V9.24707ZM44.6963 15.8682C44.4668 15.9512 44.2642 16.0171 44.0884 16.0659C43.9175 16.1196 43.7222 16.1465 43.5024 16.1465C43.1216 16.1465 42.8164 16.0586 42.5869 15.8828C42.3623 15.7021 42.2183 15.4409 42.1548 15.0991H42.1108C41.7935 15.4507 41.4517 15.7192 41.0854 15.9048C40.7241 16.0903 40.2871 16.1831 39.7744 16.1831C39.2324 16.1831 38.7856 16.0171 38.4341 15.6851C38.0874 15.353 37.9141 14.9185 37.9141 14.3813C37.9141 14.103 37.9531 13.854 38.0312 13.6343C38.1094 13.4146 38.2266 13.2168 38.3828 13.041C38.5049 12.8945 38.666 12.7651 38.8662 12.6528C39.0664 12.5356 39.2544 12.4429 39.4302 12.3745C39.6499 12.2915 40.0942 12.1377 40.7632 11.9131C41.437 11.6885 41.8911 11.5127 42.1255 11.3857V10.6606C42.1255 10.5972 42.1108 10.4751 42.0815 10.2944C42.0571 10.1138 42.001 9.94287 41.9131 9.78174C41.8154 9.60107 41.6763 9.44482 41.4956 9.31299C41.3198 9.17627 41.0684 9.10791 40.7412 9.10791C40.5166 9.10791 40.3066 9.14697 40.1113 9.2251C39.9209 9.29834 39.7866 9.37646 39.7085 9.45947C39.7085 9.55713 39.7305 9.70117 39.7744 9.8916C39.8232 10.082 39.8477 10.2578 39.8477 10.4189C39.8477 10.5898 39.7695 10.7461 39.6133 10.8877C39.4619 11.0293 39.2495 11.1001 38.9761 11.1001C38.7319 11.1001 38.5513 11.0146 38.4341 10.8438C38.3218 10.668 38.2656 10.4727 38.2656 10.2578C38.2656 10.0332 38.3438 9.81836 38.5 9.61328C38.6611 9.4082 38.8687 9.2251 39.1226 9.06396C39.3423 8.92725 39.6084 8.8125 39.9209 8.71973C40.2334 8.62207 40.5386 8.57324 40.8364 8.57324C41.2466 8.57324 41.603 8.60254 41.9058 8.66113C42.2134 8.71484 42.4917 8.83447 42.7407 9.02002C42.9897 9.20068 43.1777 9.44727 43.3047 9.75977C43.4365 10.0674 43.5024 10.4653 43.5024 10.9536C43.5024 11.6519 43.4951 12.272 43.4805 12.814C43.4658 13.3511 43.4585 13.9395 43.4585 14.5791C43.4585 14.7695 43.4902 14.9209 43.5537 15.0332C43.6221 15.1455 43.7246 15.2407 43.8613 15.3188C43.9346 15.3628 44.0493 15.3872 44.2056 15.3921C44.3667 15.397 44.5303 15.3994 44.6963 15.3994V15.8682ZM42.1401 12.001C41.7251 12.123 41.3613 12.2427 41.0488 12.3599C40.7363 12.4771 40.4458 12.6235 40.1772 12.7993C39.9331 12.9653 39.7402 13.1631 39.5986 13.3926C39.457 13.6172 39.3862 13.8857 39.3862 14.1982C39.3862 14.6035 39.4912 14.9014 39.7012 15.0918C39.916 15.2822 40.187 15.3774 40.5142 15.3774C40.8608 15.3774 41.166 15.2944 41.4297 15.1284C41.6934 14.9575 41.9155 14.7573 42.0962 14.5278L42.1401 12.001ZM50.9438 9.7085C50.9438 9.95752 50.8828 10.1797 50.7607 10.375C50.6387 10.5654 50.4507 10.6606 50.1968 10.6606C49.9233 10.6606 49.7134 10.5898 49.5669 10.4482C49.4253 10.3066 49.3545 10.1504 49.3545 9.97949C49.3545 9.87207 49.3618 9.77441 49.3765 9.68652C49.396 9.59863 49.4131 9.51074 49.4277 9.42285C49.1982 9.42285 48.9297 9.51562 48.6221 9.70117C48.3145 9.88672 48.0532 10.1504 47.8384 10.4922V14.6963C47.8384 14.8672 47.8701 15.0063 47.9336 15.1138C48.002 15.2212 48.1069 15.3018 48.2485 15.3555C48.3706 15.4043 48.5269 15.4409 48.7173 15.4653C48.9126 15.4897 49.0811 15.5068 49.2227 15.5166V16H45.4141V15.5166C45.5264 15.5068 45.6411 15.4971 45.7583 15.4873C45.8804 15.4775 45.9854 15.458 46.0732 15.4287C46.21 15.3848 46.3101 15.3091 46.3735 15.2017C46.4419 15.0894 46.4761 14.9453 46.4761 14.7695V10.3091C46.4761 10.1577 46.4395 10.0088 46.3662 9.8623C46.2979 9.71582 46.2002 9.59863 46.0732 9.51074C45.9805 9.45215 45.8706 9.41064 45.7437 9.38623C45.6167 9.35693 45.48 9.3374 45.3335 9.32764V8.85156L47.7358 8.69043L47.8384 8.79297V9.81104H47.875C48.1777 9.41553 48.5146 9.11523 48.8857 8.91016C49.2568 8.70508 49.5962 8.60254 49.9038 8.60254C50.2114 8.60254 50.4604 8.70264 50.6509 8.90283C50.8462 9.10303 50.9438 9.37158 50.9438 9.7085ZM54.9062 16.1904C53.8613 16.1904 53.0435 15.8438 52.4526 15.1504C51.8618 14.457 51.5664 13.5269 51.5664 12.3599C51.5664 11.8521 51.6445 11.3784 51.8008 10.939C51.9619 10.4946 52.1938 10.0918 52.4966 9.73047C52.7847 9.38379 53.146 9.10547 53.5806 8.89551C54.0151 8.68066 54.4888 8.57324 55.0015 8.57324C55.7095 8.57324 56.2856 8.74414 56.73 9.08594C57.1743 9.42285 57.3965 9.88428 57.3965 10.4702C57.3965 10.7144 57.3379 10.9316 57.2207 11.1221C57.1035 11.3076 56.9106 11.4004 56.6421 11.4004C56.354 11.4004 56.1294 11.3271 55.9683 11.1807C55.812 11.0342 55.7339 10.8706 55.7339 10.6899C55.7339 10.4702 55.7632 10.2456 55.8218 10.0161C55.8804 9.78174 55.9146 9.61084 55.9243 9.50342C55.8364 9.35205 55.7046 9.25195 55.5288 9.20312C55.3579 9.14941 55.1724 9.12256 54.9722 9.12256C54.7378 9.12256 54.5132 9.17383 54.2983 9.27637C54.0884 9.37402 53.8833 9.55713 53.6831 9.82568C53.5024 10.0698 53.356 10.3994 53.2437 10.8145C53.1313 11.2295 53.0752 11.7251 53.0752 12.3013C53.0752 13.2095 53.2754 13.9517 53.6758 14.5278C54.0811 15.0991 54.6108 15.3848 55.2651 15.3848C55.7388 15.3848 56.1343 15.27 56.4517 15.0405C56.7739 14.811 57.0718 14.4668 57.3452 14.0078L57.814 14.3154C57.4917 14.8916 57.0669 15.3481 56.5396 15.6851C56.0122 16.022 55.4678 16.1904 54.9062 16.1904ZM66.2222 16H62.6772V15.5166C62.7896 15.5068 62.9141 15.4971 63.0508 15.4873C63.1875 15.4775 63.2998 15.458 63.3877 15.4287C63.5244 15.3848 63.6245 15.3091 63.688 15.2017C63.7563 15.0894 63.7905 14.9453 63.7905 14.7695V11.0562C63.7905 10.5435 63.6685 10.1479 63.4243 9.86963C63.1851 9.59131 62.8921 9.45215 62.5454 9.45215C62.2915 9.45215 62.0547 9.49365 61.835 9.57666C61.6201 9.65479 61.4272 9.75244 61.2563 9.86963C61.0903 9.9917 60.9634 10.1138 60.8755 10.2358C60.7876 10.3579 60.7192 10.4604 60.6704 10.5435V14.6963C60.6704 14.8623 60.7021 14.999 60.7656 15.1064C60.834 15.2139 60.9365 15.2969 61.0732 15.3555C61.1807 15.4043 61.2905 15.4409 61.4028 15.4653C61.52 15.4897 61.647 15.5068 61.7837 15.5166V16H58.2388V15.5166C58.3511 15.5068 58.4683 15.4971 58.5903 15.4873C58.7124 15.4727 58.8149 15.4531 58.8979 15.4287C59.0347 15.3848 59.1372 15.3091 59.2056 15.2017C59.2739 15.0894 59.3081 14.9453 59.3081 14.7695V6.36133C59.3081 6.19531 59.269 6.0293 59.1909 5.86328C59.1177 5.69727 59.02 5.57275 58.8979 5.48975C58.8101 5.42627 58.6538 5.38232 58.4292 5.35791C58.2095 5.32861 58.0312 5.30908 57.8945 5.29932V4.83057L60.5679 4.66211L60.6704 4.77197V9.81104H60.6997C60.8608 9.6499 61.0073 9.5083 61.1392 9.38623C61.271 9.25928 61.4443 9.12744 61.6592 8.99072C61.8447 8.87354 62.062 8.77588 62.311 8.69775C62.5649 8.61963 62.8481 8.58057 63.1606 8.58057C63.8052 8.58057 64.3008 8.78564 64.6475 9.1958C64.9941 9.60107 65.1675 10.187 65.1675 10.9536V14.7109C65.1675 14.8818 65.1968 15.021 65.2554 15.1284C65.3188 15.231 65.4214 15.3115 65.563 15.3701C65.6753 15.4141 65.7754 15.4482 65.8633 15.4727C65.9561 15.4922 66.0757 15.5068 66.2222 15.5166V16ZM70.6167 16H67.123V15.5166C67.2354 15.5068 67.3501 15.4971 67.4673 15.4873C67.5894 15.4775 67.6943 15.458 67.7822 15.4287C67.9189 15.3848 68.019 15.3091 68.0825 15.2017C68.1509 15.0894 68.1851 14.9453 68.1851 14.7695V10.3091C68.1851 10.1528 68.1484 10.0112 68.0752 9.88428C68.0068 9.75244 67.9092 9.64258 67.7822 9.55469C67.6895 9.49609 67.5552 9.44727 67.3794 9.4082C67.2036 9.36426 67.0425 9.3374 66.896 9.32764V8.85156L69.4448 8.69043L69.5474 8.79297V14.6816C69.5474 14.8525 69.5791 14.9941 69.6426 15.1064C69.7109 15.2188 69.8159 15.3018 69.9575 15.3555C70.0649 15.3994 70.1699 15.436 70.2725 15.4653C70.375 15.4897 70.4897 15.5068 70.6167 15.5166V16ZM69.6938 5.84131C69.6938 6.11963 69.6011 6.36377 69.4155 6.57373C69.2349 6.77881 69.0103 6.88135 68.7417 6.88135C68.4927 6.88135 68.2754 6.78369 68.0898 6.58838C67.9092 6.38818 67.8188 6.16113 67.8188 5.90723C67.8188 5.63867 67.9092 5.4043 68.0898 5.2041C68.2754 5.00391 68.4927 4.90381 68.7417 4.90381C69.02 4.90381 69.2471 4.99902 69.4229 5.18945C69.6035 5.375 69.6938 5.59229 69.6938 5.84131ZM78.6367 9.2251C78.417 9.26416 78.207 9.34473 78.0068 9.4668C77.8115 9.58398 77.6431 9.79395 77.5015 10.0967C77.2134 10.751 76.9155 11.4346 76.6079 12.1475C76.3003 12.8555 75.9805 13.6001 75.6484 14.3813C75.5508 14.606 75.4458 14.8721 75.3335 15.1797C75.2261 15.4873 75.126 15.7827 75.0332 16.0659H74.4619C73.998 14.9185 73.5708 13.8735 73.1802 12.9312C72.7896 11.9839 72.3843 11.0146 71.9644 10.0234C71.8667 9.79883 71.708 9.62549 71.4883 9.50342C71.2734 9.37646 71.0562 9.2959 70.8364 9.26172V8.77832H74.1763V9.29102C74.0298 9.2959 73.8467 9.32764 73.627 9.38623C73.4072 9.43994 73.2974 9.51562 73.2974 9.61328C73.2974 9.62793 73.3096 9.66699 73.334 9.73047C73.3584 9.78906 73.3828 9.85742 73.4072 9.93555C73.6074 10.4336 73.8906 11.1294 74.2568 12.0229C74.623 12.9165 74.9209 13.6367 75.1504 14.1836C75.3262 13.7637 75.5459 13.2412 75.8096 12.6162C76.0781 11.9912 76.3662 11.293 76.6738 10.5215C76.7227 10.3896 76.769 10.2676 76.813 10.1553C76.8569 10.0381 76.8789 9.9209 76.8789 9.80371C76.8789 9.7207 76.8374 9.64746 76.7544 9.58398C76.6763 9.51562 76.5811 9.45703 76.4688 9.4082C76.3564 9.35938 76.2466 9.32275 76.1392 9.29834C76.0317 9.27393 75.9438 9.25684 75.8755 9.24707V8.77832H78.6367V9.2251ZM85.375 14.3008C85.0723 14.877 84.667 15.3359 84.1592 15.6777C83.6514 16.0195 83.0679 16.1904 82.4087 16.1904C81.8276 16.1904 81.3174 16.0879 80.8779 15.8828C80.4434 15.6777 80.0845 15.3994 79.8013 15.0479C79.5181 14.6963 79.3057 14.2861 79.1641 13.8174C79.0273 13.3486 78.959 12.853 78.959 12.3306C78.959 11.8618 79.0322 11.4028 79.1787 10.9536C79.3301 10.4995 79.5498 10.0918 79.8379 9.73047C80.1162 9.38379 80.4604 9.10547 80.8706 8.89551C81.2856 8.68066 81.7495 8.57324 82.2622 8.57324C82.7896 8.57324 83.2412 8.65625 83.6172 8.82227C83.9932 8.98828 84.2983 9.21533 84.5327 9.50342C84.7573 9.77686 84.9233 10.0991 85.0308 10.4702C85.1431 10.8413 85.1992 11.2441 85.1992 11.6787V12.1621H80.4165C80.4165 12.6357 80.4604 13.0654 80.5483 13.4512C80.6411 13.8369 80.7852 14.1763 80.9805 14.4692C81.1709 14.7524 81.4199 14.9771 81.7275 15.1431C82.0352 15.3042 82.4014 15.3848 82.8262 15.3848C83.2607 15.3848 83.6343 15.2847 83.9468 15.0845C84.2642 14.8794 84.5693 14.5132 84.8623 13.9858L85.375 14.3008ZM83.7563 11.5469C83.7563 11.2734 83.7319 10.9805 83.6831 10.668C83.6392 10.3555 83.5659 10.0942 83.4634 9.88428C83.3511 9.65967 83.1973 9.47656 83.002 9.33496C82.8066 9.19336 82.5552 9.12256 82.2476 9.12256C81.7349 9.12256 81.3076 9.3374 80.9658 9.76709C80.6289 10.1919 80.4458 10.7852 80.4165 11.5469H83.7563Z" fill="#575445"/>
<g clip-path="url(#clip0_1_297)">
<path d="M107.68 8.54624L104.203 1.68397C103.726 0.794414 102.976 0.794414 102.499 1.55689C102.021 2.44644 102.021 3.84431 102.43 4.73387L104.407 8.67332H90.2271C89.5454 8.67332 89 9.68996 89 10.9607C89 12.2315 89.5454 13.2482 90.2271 13.2482H104.476L102.499 17.1876C102.021 18.0772 102.09 19.475 102.567 20.3646C102.771 20.7458 103.112 21 103.385 21C103.726 21 103.998 20.7458 104.271 20.3646L107.748 13.5023C108.362 11.9774 108.362 9.94411 107.68 8.54624Z" fill="#575445"/>
</g>
<defs>
<clipPath id="clip0_1_297">
<rect width="20" height="20" fill="white" transform="translate(89 1)"/>
</clipPath>
</defs>
</svg>
